<svg width="40" height="52" viewBox="0 0 40 52" fill="none" xmlns="http://www.w3.org/2000/svg">
<path d="M39.5625 24.0913L29.5157 6.92826C29.3419 6.63148 29.1119 6.37186 28.8388 6.1641L21.3272 0.448456C20.9443 0.157446 20.4775 0 19.9977 0C19.5178 0 19.051 0.157446 18.6681 0.448456L11.1631 6.1641C10.8905 6.37214 10.6608 6.63171 10.4871 6.92826L0.440368 24.0913C0.152871 24.5798 0.000805176 25.1369 2.86603e-06 25.7046V29.8947C-0.00107483 30.6837 0.301815 31.4425 0.845054 32.0115L19.9995 51.9998L39.154 32.0115C39.6972 31.4424 40.0001 30.6837 39.9991 29.8947V25.7046C39.9994 25.1372 39.8486 24.5801 39.5625 24.0913V24.0913ZM35.6931 26.0003L35.1504 29.839C35.0573 30.5036 34.7141 31.1068 34.1917 31.5241L27.0416 37.2445L19.9995 51.4963L12.8795 37.0811L5.82616 31.5241C5.29592 31.1071 4.94666 30.4999 4.85153 29.8296L4.30882 26.0069C4.22299 25.4073 4.35924 24.7969 4.69164 24.2918C5.02405 23.7868 5.52941 23.4222 6.1116 23.2676L19.008 19.8407C19.7156 19.6514 20.46 19.6514 21.1676 19.8407L33.8959 23.2666C34.4759 23.4225 34.9789 23.7867 35.3101 24.2904C35.6412 24.7941 35.7775 25.4024 35.6931 26.0003V26.0003Z" fill="black"/>
<path d="M22.6548 29.9126C23.2623 31.678 25.8172 32.3902 28.3618 31.5023C30.9063 30.6144 32.4743 28.4617 31.865 26.6963C29.6199 25.2303 25.7646 28.0064 22.6548 29.9126Z" fill="black"/>
<path d="M8.38479 26.5026C7.78011 28.2501 9.33218 30.3754 11.8495 31.2557C14.3668 32.1361 16.9001 31.4295 17.5019 29.6839C14.4222 27.8004 10.6045 25.0517 8.38479 26.5026Z" fill="black"/>
</svg>
